<svg width="173" height="77" viewBox="0 0 173 77" fill="none" xmlns="http://www.w3.org/2000/svg">
<path d="M106.899 38.5984C106.168 38.5984 105.68 38.1917 105.435 37.3787C104.568 34.1257 103.253 31.3942 101.491 29.1847C99.7292 26.9756 97.2895 24.9762 94.1717 23.187L89.0482 27.3755V37.0125C89.0482 37.5276 88.9126 37.9275 88.6416 38.2121C88.3706 38.4967 87.9911 38.6392 87.5032 38.6392C87.0421 38.6392 86.6762 38.4967 86.4052 38.2121C86.1338 37.9275 85.9985 37.5276 85.9985 37.0125V10.9878C85.9985 10.473 86.1338 10.0732 86.4052 9.7882C86.6762 9.5036 87.0421 9.36149 87.5032 9.36149C87.9911 9.36149 88.3706 9.5036 88.6416 9.7882C88.9126 10.0732 89.0482 10.473 89.0482 10.9878V23.8782L105.273 9.88988C105.571 9.6461 105.869 9.52402 106.168 9.52402C106.547 9.52402 106.886 9.67331 107.184 9.97152C107.455 10.2425 107.591 10.5679 107.591 10.9474C107.591 11.2996 107.428 11.6251 107.103 11.9233L96.2455 21.3977C99.7699 23.4852 102.515 25.7895 104.48 28.3105C106.445 30.8318 107.699 33.6918 108.241 36.8907L108.282 37.2158C108.282 37.6497 108.153 37.9883 107.896 38.2325C107.638 38.4766 107.306 38.5984 106.899 38.5984ZM126.852 13.5905C126.255 13.5905 125.747 13.3939 125.327 13.0009C124.907 12.6078 124.697 12.1267 124.697 11.5575C124.697 10.9879 124.907 10.4999 125.327 10.0933C125.747 9.68697 126.255 9.48363 126.852 9.48363C127.448 9.48363 127.97 9.69339 128.417 10.1137C128.865 10.534 129.088 11.0151 129.088 11.5574C129.088 12.0994 128.865 12.5738 128.417 12.9804C127.97 13.3871 127.448 13.5905 126.852 13.5905ZM126.852 38.6392C126.391 38.6392 126.032 38.4967 125.774 38.2121C125.517 37.9275 125.388 37.5276 125.388 37.0125V19.5273C125.388 19.0121 125.517 18.6122 125.774 18.3276C126.032 18.0431 126.391 17.9006 126.852 17.9006C127.34 17.9006 127.712 18.0431 127.97 18.3276C128.227 18.6122 128.356 19.0121 128.356 19.5273V37.0125C128.356 37.5276 128.227 37.9275 127.97 38.2121C127.712 38.4967 127.34 38.6392 126.852 38.6392ZM148.471 38.6392C148.01 38.6392 147.651 38.4967 147.394 38.2121C147.136 37.9275 147.007 37.5276 147.007 37.0125V8.99569C147.007 8.48054 147.136 8.08067 147.394 7.79607C147.651 7.51148 148.01 7.36899 148.471 7.36899C148.932 7.36899 149.298 7.51148 149.569 7.79607C149.84 8.08067 149.976 8.48054 149.976 8.99569V37.0125C149.976 37.5004 149.847 37.8935 149.59 38.1917C149.332 38.4899 148.959 38.6392 148.471 38.6392ZM170.05 13.5905C169.454 13.5905 168.945 13.3939 168.525 13.0009C168.105 12.6078 167.895 12.1267 167.895 11.5575C167.895 10.9879 168.105 10.4999 168.525 10.0933C168.945 9.68697 169.454 9.48363 170.05 9.48363C170.646 9.48363 171.168 9.69339 171.616 10.1137C172.063 10.534 172.286 11.0151 172.286 11.5574C172.286 12.0994 172.063 12.5738 171.616 12.9804C171.168 13.3871 170.646 13.5905 170.05 13.5905ZM170.05 38.6392C169.589 38.6392 169.23 38.4967 168.972 38.2121C168.715 37.9275 168.586 37.5276 168.586 37.0125V19.5273C168.586 19.0121 168.715 18.6122 168.972 18.3276C169.23 18.0431 169.589 17.9006 170.05 17.9006C170.538 17.9006 170.911 18.0431 171.168 18.3276C171.426 18.6122 171.555 19.0121 171.555 19.5273V37.0125C171.555 37.5276 171.426 37.9275 171.168 38.2121C170.911 38.4967 170.538 38.6392 170.05 38.6392Z" fill="#A8B3B4"/>
<path fill-rule="evenodd" clip-rule="evenodd" d="M131.479 49.7052C131.656 49.6459 131.837 49.5185 132.032 49.5801C132.24 49.6319 132.386 49.8609 132.341 50.0726C132.297 50.254 132.145 50.3859 131.982 50.4634C131.237 50.7582 130.39 50.4301 129.659 50.7782C129.211 50.9834 128.927 51.4355 128.787 51.892C128.7 52.2651 128.628 52.6423 128.564 53.0202C128.758 52.8199 128.932 52.5878 129.188 52.4616C129.454 52.3308 129.736 52.1959 130.04 52.2027C130.358 52.2061 130.69 52.1679 130.99 52.2991C131.958 52.6207 132.611 53.5686 132.744 54.5558C132.805 55.1685 132.792 55.8114 132.535 56.3821C132.365 56.8545 132.006 57.2332 131.605 57.5209C130.894 57.9971 129.951 58.0338 129.169 57.7166C128.727 57.5209 128.343 57.1883 128.102 56.7672C127.768 56.2045 127.642 55.5415 127.63 54.8945C127.611 54.1458 127.6 53.3914 127.712 52.6491C127.785 51.9574 127.97 51.2514 128.4 50.6917C128.855 50.127 129.586 49.8681 130.291 49.825C130.687 49.7936 131.103 49.8647 131.479 49.7052ZM129.88 53.0066C129.075 53.1899 128.523 54.021 128.545 54.8272C128.507 55.4164 128.654 56.0215 128.996 56.5065C129.277 56.8927 129.742 57.1682 130.23 57.1376C130.799 57.1777 131.326 56.7971 131.576 56.3046C132.041 55.4081 131.939 54.2357 131.296 53.45C130.954 53.0565 130.388 52.8592 129.88 53.0066Z" fill="#A8B3B4"/>
<path fill-rule="evenodd" clip-rule="evenodd" d="M153.256 52.2061C153.778 52.1487 154.332 52.1509 154.813 52.3894C155.615 52.753 156.141 53.5849 156.204 54.4542C156.212 54.7014 156.281 55.0355 156.035 55.1953C155.773 55.3303 155.468 55.2796 155.185 55.294C154.16 55.3628 153.132 55.3114 152.105 55.3314C152.113 55.7982 152.298 56.2555 152.601 56.6085C152.907 56.9437 153.36 57.1395 153.813 57.1372C154.202 57.149 154.583 57.0341 154.934 56.8776C155.194 56.7616 155.442 56.5287 155.748 56.6043C156.018 56.6387 156.146 56.9857 155.998 57.2019C155.843 57.4347 155.566 57.5398 155.316 57.638C154.474 57.9128 153.516 58.0251 152.684 57.6543C151.76 57.2533 151.177 56.2566 151.175 55.2634C151.138 54.6174 151.228 53.947 151.557 53.3804C151.929 52.7787 152.549 52.3165 153.256 52.2061ZM153.028 53.114C152.498 53.3683 152.229 53.9568 152.123 54.5063C153.165 54.5214 154.209 54.5282 155.251 54.5029C155.228 53.8302 154.777 53.1669 154.113 52.9896C153.753 52.8535 153.36 52.9503 153.028 53.114Z" fill="#A8B3B4"/>
<path fill-rule="evenodd" clip-rule="evenodd" d="M106.419 52.7655C106.416 52.5398 106.49 52.2235 106.766 52.2065C107.659 52.1536 108.556 52.2016 109.451 52.1815C109.678 52.1936 109.969 52.1343 110.121 52.3501C110.254 52.5689 110.192 52.8392 110.205 53.0826C110.212 54.3994 110.186 55.7165 110.218 57.0329C110.474 57.0329 110.789 56.9623 110.985 57.1732C111.139 57.3281 111.104 57.5621 111.11 57.7605C111.097 58.1513 111.124 58.5425 111.099 58.9321C111.092 59.1396 110.929 59.3698 110.699 59.3305C110.473 59.3698 110.217 59.1933 110.224 58.9529C110.208 58.5784 110.237 58.2031 110.21 57.8285C108.774 57.8217 107.337 57.821 105.9 57.8285C105.89 58.1812 105.907 58.5342 105.898 58.8875C105.888 59.0402 105.852 59.2341 105.696 59.3037C105.453 59.374 105.102 59.3517 105.035 59.0535C104.983 58.6464 105.029 58.2333 105.011 57.824C105.024 57.5976 104.962 57.3138 105.159 57.1471C105.359 57.0035 105.616 56.9573 105.804 56.7922C106.16 56.4875 106.321 56.0196 106.378 55.5672C106.471 54.6356 106.405 53.699 106.419 52.7655ZM107.332 52.9654C107.271 53.9522 107.354 54.9497 107.184 55.9278C107.113 56.3428 106.902 56.7211 106.595 57.0087C107.505 57.0167 108.415 57.0137 109.325 57.0099C109.324 55.6613 109.336 54.3132 109.319 52.9654C108.658 52.9529 107.994 52.9522 107.332 52.9654Z" fill="#A8B3B4"/>
<path fill-rule="evenodd" clip-rule="evenodd" d="M119.205 52.4057C119.693 52.126 120.269 52.1918 120.808 52.1842C121.177 52.1937 121.55 52.1559 121.917 52.2122C122.159 52.2745 122.23 52.5478 122.212 52.7689C122.2 54.2456 122.199 55.7234 122.213 57.2008C122.226 57.4098 122.193 57.6513 121.982 57.7526C121.746 57.9408 121.368 57.7356 121.356 57.4472C121.321 56.8999 121.372 56.3504 121.333 55.8023C120.869 55.7906 120.403 55.7751 119.94 55.8107C119.659 55.8201 119.443 56.0465 119.347 56.2948C119.164 56.737 119.045 57.2321 118.682 57.5708C118.511 57.7318 118.25 57.9102 118.013 57.7749C117.787 57.6762 117.689 57.3569 117.824 57.1509C117.974 56.9887 118.184 56.8712 118.258 56.6493C118.452 56.1712 118.62 55.624 119.103 55.3556C118.836 55.1697 118.536 54.9962 118.387 54.6938C117.925 53.8861 118.373 52.7689 119.205 52.4057ZM119.163 53.6212C119.056 53.9288 119.066 54.3011 119.263 54.5725C119.463 54.8692 119.833 55.0052 120.18 55.0143C120.568 55.0158 120.957 55.0245 121.345 55.0015C121.346 54.3242 121.352 53.6473 121.341 52.9704C120.981 52.8978 120.61 52.9193 120.245 52.931C119.799 52.9579 119.34 53.1911 119.163 53.6212Z" fill="#A8B3B4"/>
<path fill-rule="evenodd" clip-rule="evenodd" d="M134.438 52.2371C134.628 52.1766 134.886 52.1653 135.023 52.3403C135.094 52.4699 135.102 52.6226 135.109 52.7674C135.131 53.4964 135.116 54.2259 135.1 54.9538C135.066 55.4342 135.021 55.915 135.027 56.3972C135.248 56.147 135.41 55.8537 135.594 55.5767C135.969 54.975 136.378 54.3948 136.762 53.7984C137.104 53.332 137.403 52.8335 137.772 52.3883C137.904 52.2239 138.122 52.1615 138.324 52.2186C138.493 52.3169 138.562 52.516 138.55 52.705C138.546 54.2656 138.555 55.8273 138.545 57.3878C138.569 57.6751 138.251 57.9034 137.984 57.8123C137.813 57.7337 137.691 57.5651 137.677 57.3769C137.618 56.8821 137.701 56.3851 137.692 55.8893C137.688 55.1761 137.743 54.4648 137.768 53.7535C137.705 53.8188 137.643 53.8861 137.591 53.9613C136.826 55.1405 136.026 56.2967 135.206 57.4385C135.076 57.6222 134.899 57.8134 134.66 57.8278C134.441 57.8055 134.211 57.6358 134.224 57.3954C134.183 55.8749 134.23 54.3529 134.215 52.8316C134.22 52.6226 134.203 52.3308 134.438 52.2371Z" fill="#A8B3B4"/>
<path fill-rule="evenodd" clip-rule="evenodd" d="M140.342 52.4623C140.63 52.3232 140.954 52.262 141.268 52.2095C141.765 52.2238 142.29 52.1173 142.758 52.33C143.318 52.5341 143.742 53.1064 143.713 53.7111C143.713 53.9722 143.581 54.2145 143.414 54.408C143.236 54.617 142.965 54.6987 142.738 54.8378C142.981 54.9534 143.252 55.0226 143.459 55.2021C143.688 55.3986 143.904 55.6432 143.96 55.9497C144.054 56.517 143.832 57.1395 143.359 57.4789C142.905 57.8168 142.322 57.8935 141.771 57.9169C141.179 57.884 140.573 57.7873 140.049 57.4951C139.72 57.3424 139.798 56.7627 140.159 56.7011C140.469 56.6504 140.724 56.8764 141.011 56.9486C141.582 57.1036 142.253 57.1671 142.773 56.8296C143.188 56.568 143.215 55.8854 142.81 55.6027C142.357 55.2463 141.753 55.2894 141.212 55.2947C141.01 55.2966 140.756 55.2788 140.656 55.0717C140.506 54.8264 140.742 54.481 141.021 54.5138C141.529 54.529 142.064 54.5108 142.522 54.2686C142.905 54.066 142.939 53.4533 142.586 53.2061C142.27 52.9797 141.852 52.906 141.477 53.002C141.13 53.0478 140.819 53.2761 140.463 53.2417C140.095 53.2005 140.024 52.6226 140.342 52.4623Z" fill="#A8B3B4"/>
<path fill-rule="evenodd" clip-rule="evenodd" d="M145.698 52.324C145.869 52.1336 146.205 52.1661 146.352 52.372C146.451 52.5006 146.446 52.6733 146.455 52.8282C146.459 53.3895 146.449 53.9511 146.457 54.5135C147.305 54.5184 148.154 54.5222 149.002 54.5109C149.006 53.9508 149 53.391 149.001 52.8305C149.007 52.6483 149.001 52.4231 149.17 52.307C149.347 52.1487 149.65 52.1653 149.8 52.3531C149.922 52.4805 149.888 52.6703 149.899 52.8313C149.889 54.3491 149.906 55.8685 149.891 57.3867C149.908 57.7012 149.522 57.9472 149.251 57.7787C149.067 57.68 148.999 57.4631 149.003 57.2661C148.998 56.6217 149.006 55.9773 149.004 55.3325C148.155 55.3254 147.306 55.3265 146.457 55.3314C146.451 55.9135 146.455 56.4959 146.457 57.0779C146.454 57.2582 146.454 57.4491 146.371 57.6146C146.251 57.8346 145.92 57.9098 145.734 57.7306C145.606 57.6369 145.557 57.4804 145.565 57.3281C145.577 55.8711 145.575 54.4137 145.568 52.9567C145.577 52.7443 145.513 52.4813 145.698 52.324Z" fill="#A8B3B4"/>
<path fill-rule="evenodd" clip-rule="evenodd" d="M159.391 52.2341C160.043 52.1381 160.732 52.2034 161.334 52.4862C161.564 52.5833 161.637 52.894 161.513 53.1007C161.424 53.25 161.235 53.3634 161.062 53.2991C160.709 53.1804 160.378 52.9745 159.997 52.9571C159.479 52.9559 158.969 53.1956 158.628 53.5841C158.216 54.1238 158.12 54.851 158.241 55.5067C158.297 55.9187 158.464 56.3265 158.772 56.6138C159.083 56.918 159.523 57.0235 159.937 57.1047C160.329 57.169 160.691 56.9588 161.027 56.7854C161.22 56.6754 161.491 56.6905 161.647 56.8587C161.815 57.048 161.745 57.3704 161.536 57.4989C160.9 57.858 160.145 57.9052 159.434 57.8153C158.786 57.6875 158.16 57.3474 157.78 56.7963C157.418 56.2343 157.31 55.5502 157.339 54.8922C157.323 54.2032 157.524 53.4775 158.024 52.9828C158.384 52.592 158.879 52.3531 159.391 52.2341Z" fill="#A8B3B4"/>
<path fill-rule="evenodd" clip-rule="evenodd" d="M163.383 52.4598C164.066 52.1812 164.819 52.1491 165.547 52.2062C166.234 52.3127 166.907 52.7818 167.095 53.4765C167.2 54.0237 167.116 54.5857 167.128 55.1394C167.145 55.805 167.056 56.4846 167.223 57.1373C167.277 57.375 167.304 57.7031 167.033 57.818C166.848 57.8384 166.611 57.8698 166.491 57.6936C166.362 57.4854 166.35 57.2303 166.283 56.9993C166.053 57.1664 165.883 57.403 165.64 57.5508C165.203 57.8316 164.66 57.9597 164.148 57.8528C163.574 57.7655 162.977 57.4272 162.77 56.8584C162.562 56.2404 162.728 55.503 163.217 55.0639C163.74 54.6443 164.399 54.444 165.051 54.3348C165.467 54.3011 165.874 54.1878 166.294 54.1866C166.283 53.9205 166.258 53.6344 166.087 53.4179C165.837 53.1076 165.433 52.956 165.046 52.9235C164.567 52.9511 164.1 53.094 163.66 53.2799C163.393 53.4201 163.06 53.1794 163.064 52.8899C163.042 52.685 163.206 52.5274 163.383 52.4598ZM165.009 55.0688C164.578 55.1716 164.125 55.3201 163.825 55.6667C163.534 55.9845 163.501 56.553 163.826 56.8595C164.092 57.081 164.464 57.177 164.803 57.1127C165.249 57.0111 165.66 56.7741 165.984 56.4532C166.094 56.3285 166.23 56.1951 166.232 56.0167C166.248 55.6451 166.24 55.2729 166.229 54.9017C165.815 54.8972 165.412 54.9875 165.009 55.0688Z" fill="#A8B3B4"/>
<path fill-rule="evenodd" clip-rule="evenodd" d="M112.88 52.5659C112.985 52.403 113.192 52.3244 113.381 52.3259C114.296 52.3089 115.212 52.2983 116.126 52.3183C116.36 52.3108 116.501 52.5572 116.48 52.7681C116.48 54.2882 116.476 55.8087 116.482 57.3288C116.482 57.4702 116.471 57.6331 116.347 57.7261C116.108 57.9665 115.644 57.7884 115.627 57.4505C115.606 55.9996 115.637 54.5483 115.612 53.0977C114.995 53.0765 114.378 53.0875 113.761 53.0909C113.734 54.1454 113.838 55.2134 113.625 56.2555C113.463 56.8402 113.134 57.4434 112.549 57.6917C112.351 57.7635 112.115 57.8859 111.919 57.7435C111.712 57.6357 111.701 57.3557 111.774 57.1614C111.918 56.9275 112.236 56.9225 112.426 56.7408C112.722 56.4603 112.82 56.0347 112.833 55.6402C112.867 54.7667 112.854 53.8917 112.839 53.0183C112.842 52.8671 112.833 52.7114 112.88 52.5659Z" fill="#A8B3B4"/>
<path fill-rule="evenodd" clip-rule="evenodd" d="M96.5255 54.9028H92.0373V57.2733C92.0373 57.4162 92.0021 57.556 91.9012 57.6619C91.8022 57.7666 91.668 57.8063 91.5259 57.8063C91.3864 57.8063 91.2591 57.7639 91.1616 57.6619C91.061 57.556 91.0259 57.4158 91.0259 57.2733V52.9896C91.0259 52.0981 91.2474 51.2393 91.8918 50.5946C92.5366 49.9502 93.3953 49.7287 94.2868 49.7287C95.1796 49.7287 96.0322 49.9558 96.6766 50.5999C97.3207 51.2443 97.5478 52.0969 97.5478 52.9896V57.2733C97.5478 57.4158 97.5127 57.5561 97.4121 57.6619C97.3124 57.7666 97.1789 57.8063 97.0365 57.8063C96.8959 57.8063 96.7681 57.7635 96.6683 57.663C96.5633 57.5587 96.5255 57.4185 96.5255 57.2733V54.9028ZM96.5255 54.0343V52.9568C96.5255 52.3316 96.3947 51.6861 95.9491 51.2204C95.5114 50.7624 94.9022 50.6199 94.2868 50.6199C93.6723 50.6199 93.054 50.7586 92.6133 51.2152C92.165 51.68 92.0373 52.3324 92.0373 52.9568V54.0343H96.5255ZM100.042 57.8063C99.9021 57.8063 99.7743 57.7639 99.6772 57.6619C99.5763 57.5561 99.5415 57.4158 99.5415 57.2733V50.262C99.5415 50.1191 99.5759 49.9793 99.6772 49.8734C99.7743 49.7714 99.9017 49.7287 100.042 49.7287C100.186 49.7287 100.32 49.7718 100.419 49.8802C100.515 49.9864 100.553 50.1206 100.553 50.262V57.2733C100.553 57.4147 100.515 57.5489 100.419 57.6551C100.32 57.7632 100.186 57.8063 100.042 57.8063Z" fill="#A8B3B4"/>
<path fill-rule="evenodd" clip-rule="evenodd" d="M51.605 7.65317C54.3475 9.36794 56.1174 12.1379 56.9058 15.0312C57.4384 16.8329 57.492 18.7128 57.9248 20.5307C58.1856 21.6688 58.7234 22.7501 59.4528 23.7037C60.3701 24.8795 61.6877 25.7212 63.0335 26.4514C63.8473 26.9306 64.7695 27.5361 64.8946 28.4783C65.0201 29.5063 64.1939 30.3435 63.4198 30.9909C63.0211 31.3307 62.4617 31.7502 62.662 32.3119C62.9837 32.9933 63.8114 33.3176 64.2245 33.9439C64.5514 34.4961 64.4747 35.244 63.9758 35.6942C63.6753 36.0502 63.1054 36.3628 63.2248 36.8775C63.427 37.5042 64.2781 37.8065 64.3122 38.4997C64.3673 39.4291 63.4504 40.1544 63.5324 41.0932C63.6273 41.9886 64.1958 42.7641 64.4924 43.6092C64.9698 44.7329 64.7876 46.1672 63.7165 46.9669C62.3634 47.9693 60.5115 48.0339 58.8436 48.1212C55.8188 48.1635 52.6402 48.45 50.0142 49.9267C47.9208 51.0938 46.4691 53.1302 46.147 55.3356C45.7918 57.4453 46.4422 59.679 47.9442 61.3276C48.1978 61.6009 48.4624 61.8651 48.6895 62.158C45.0944 60.8223 42.0429 58.211 40.5178 54.9569C39.1183 52.0035 39.0718 48.6636 39.785 45.5538C40.9003 40.8018 43.6427 36.5635 46.1115 32.307C47.1894 30.3564 48.4159 28.3944 48.7806 26.2068C47.3183 29.5483 45.105 32.5579 42.806 35.4674C39.9226 39.2205 37.3986 43.3519 36.5493 47.9111C35.8807 51.3059 36.2919 54.8824 37.7917 58.0554C39.5971 61.6089 43.0527 64.2999 46.8821 65.9999C51.0812 67.8647 55.8724 68.3893 60.4971 68.048C67.8056 67.3613 67.9594 62.7888 67.3611 59.6269C69.1707 60.4293 70.0139 62.477 69.7286 64.3823C69.4553 66.3155 68.1518 68.0333 66.4536 69.1891C64.2762 70.6948 61.5588 71.4122 58.8647 71.6647C54.0292 72.1632 49.0701 71.6223 44.4939 70.1234C41.2114 69.0647 38.0026 67.5605 35.6162 65.2145C31.7777 61.5091 29.8347 56.3395 30.0618 51.2881C30.289 46.8702 32.0782 42.6266 34.5579 38.8558C36.5297 35.8643 38.9002 33.1056 41.3475 30.424C43.7214 27.761 46.2404 25.1837 48.2534 22.2742C48.4635 21.9772 48.6646 21.6752 48.8558 21.3687C51.5242 17.0993 52.2181 14.2753 46.9907 11.0627C45.8201 10.3431 51.7952 8.91931 51.605 7.65317Z" fill="#A8B3B4"/>
<path fill-rule="evenodd" clip-rule="evenodd" d="M28.838 40.1449C28.4415 40.7598 28.0613 41.3857 27.7015 42.0226C25.2402 46.4117 23.7061 51.3728 24.264 56.325C24.7432 60.9791 26.8401 65.5463 30.3996 68.9626C32.9058 71.4008 36.208 73.0297 39.5937 74.2486C43.0081 75.4709 46.6243 76.2563 50.2931 76.4646C48.8769 76.6025 47.4468 76.4827 46.0347 76.3467C41.7669 75.9286 37.6041 74.7687 33.7695 73.0313C30.5032 71.5157 27.3571 69.6327 25.0221 67.0294C21.4361 63.0076 19.7705 57.7223 20.0683 52.5882C20.2951 48.1088 22.1781 43.8148 24.7969 40.0527C24.8487 39.9782 24.9016 39.9034 24.9541 39.8297C26.1938 40.2118 27.5405 40.3176 28.838 40.1449Z" fill="#A8B3B4"/>
<path fill-rule="evenodd" clip-rule="evenodd" d="M23.7062 0.710934C34.335 -0.423302 45.5355 2.54249 53.4869 9.10147C54.3327 9.9288 54.4635 11.2788 53.77 12.2196C53.1811 13.0609 52.0495 13.5915 50.9467 13.4521C50.2153 13.3685 49.5966 12.966 49.0622 12.5344C44.0532 8.63848 37.6348 6.30198 31.0641 5.83294C21.6399 5.07477 12.0343 8.02318 4.8241 13.5231C3.96048 14.2333 2.62367 14.4313 1.59148 13.9098C0.408862 13.3651 -0.300548 12.0366 0.123893 10.871C0.400932 9.83697 1.47092 9.26852 2.32017 8.64151C8.46793 4.29695 15.9446 1.47326 23.7062 0.710934Z" fill="#A8B3B4"/>
<path fill-rule="evenodd" clip-rule="evenodd" d="M24.9497 9.92463C32.5001 9.1536 40.4054 11.1178 46.2697 15.5387C46.9621 16.0448 47.3808 16.8506 47.3124 17.6617C47.2505 18.8719 46.1563 19.9929 44.8078 20.1138C43.8648 20.2934 42.9766 19.841 42.2815 19.3092C39.0274 16.9557 35.0109 15.5202 30.8806 15.1045C24.1807 14.4056 17.2892 16.3536 12.0314 20.1365C11.1599 20.8614 9.80489 21.0527 8.76591 20.5126C7.46235 19.9373 6.85838 18.4044 7.41813 17.2013C7.79457 16.4212 8.61473 15.9439 9.33926 15.4537C13.8928 12.4218 19.3205 10.45 24.9497 9.92463Z" fill="#A8B3B4"/>
<path fill-rule="evenodd" clip-rule="evenodd" d="M26.7744 19.2453C31.0558 18.9604 35.482 19.9483 38.9947 22.2183C39.9581 22.8295 40.4888 24.0045 40.1203 25.0405C39.7741 26.2412 38.3979 27.1249 37.0267 26.9646C35.9129 26.866 35.1203 26.0617 34.1278 25.6792C29.7515 23.6817 24.326 24.2252 20.2249 26.5255C19.3337 27.0149 18.4606 27.7459 17.3339 27.6121C15.5587 27.572 14.1459 25.7839 14.7287 24.2543C15.0579 23.1881 16.1887 22.6152 17.154 22.0705C20.0514 20.4555 23.3796 19.4596 26.7744 19.2453Z" fill="#A8B3B4"/>
<path fill-rule="evenodd" clip-rule="evenodd" d="M26.5812 28.4746C27.9936 28.2036 29.5311 28.5188 30.6634 29.3348C32.0536 30.3209 32.8038 32.0148 32.4617 33.5947C32.2682 34.8056 31.4496 35.8994 30.3312 36.5718C28.8001 37.5246 26.6492 37.556 25.0705 36.678C23.2378 35.7354 22.3039 33.6347 22.8066 31.7956C23.2446 30.1644 24.7579 28.809 26.5812 28.4746Z" fill="#A8B3B4"/>
</svg>
