<?xml version="1.0" encoding="utf-8"?><svg viewBox="0 0 173 77" xmlns="http://www.w3.org/2000/svg" xmlns:xlink="http://www.w3.org/1999/xlink"><style>:root>svg{display:none}:root>svg:target{display:block}</style><svg fill="none" viewBox="0 0 173 77" id="logo" xmlns="http://www.w3.org/2000/svg"><path d="M106.899 38.598c-.731 0-1.219-.406-1.464-1.22-.867-3.252-2.182-5.984-3.944-8.193-1.762-2.21-4.201-4.209-7.32-5.998l-5.123 4.188v9.638c0 .515-.135.915-.406 1.2-.271.284-.65.426-1.139.426-.46 0-.827-.142-1.098-.427-.271-.285-.406-.684-.406-1.2V10.989c0-.515.135-.915.406-1.2.271-.284.637-.427 1.098-.427.488 0 .868.143 1.139.427.27.285.406.685.406 1.2v12.89L105.273 9.89c.298-.244.596-.366.895-.366.379 0 .718.15 1.016.448.271.27.407.596.407.975 0 .353-.163.678-.488.976l-10.857 9.475c3.524 2.087 6.269 4.392 8.234 6.913 1.965 2.52 3.219 5.38 3.761 8.58l.041.325c0 .434-.129.772-.386 1.017-.258.244-.59.365-.997.365Zm19.953-25.008a2.15 2.15 0 0 1-1.525-.59 1.9 1.9 0 0 1-.63-1.443c0-.57.21-1.057.63-1.464.42-.406.928-.61 1.525-.61.596 0 1.118.21 1.565.63.448.421.671.902.671 1.444 0 .542-.223 1.017-.671 1.423-.447.407-.969.61-1.565.61Zm0 25.05c-.461 0-.82-.143-1.078-.428-.257-.285-.386-.684-.386-1.2V19.528c0-.515.129-.915.386-1.2.258-.284.617-.426 1.078-.426.488 0 .86.142 1.118.427.257.284.386.684.386 1.2v17.485c0 .515-.129.915-.386 1.2-.258.284-.63.426-1.118.426Zm21.619 0c-.461 0-.82-.143-1.077-.428-.258-.285-.387-.684-.387-1.2V8.997c0-.515.129-.915.387-1.2.257-.285.616-.427 1.077-.427.461 0 .827.142 1.098.427.271.285.407.685.407 1.2v28.017c0 .487-.129.88-.386 1.179-.258.298-.631.447-1.119.447Zm21.579-25.05a2.153 2.153 0 0 1-1.525-.59 1.9 1.9 0 0 1-.63-1.443c0-.57.21-1.057.63-1.464.42-.406.929-.61 1.525-.61.596 0 1.118.21 1.566.63.447.421.67.902.67 1.444 0 .542-.223 1.017-.67 1.423-.448.407-.97.61-1.566.61Zm0 25.05c-.461 0-.82-.143-1.078-.428-.257-.285-.386-.684-.386-1.2V19.528c0-.515.129-.915.386-1.2.258-.284.617-.426 1.078-.426.488 0 .861.142 1.118.427.258.284.387.684.387 1.2v17.485c0 .515-.129.915-.387 1.2-.257.284-.63.426-1.118.426Z" fill="#A8B3B4"/><path fill-rule="evenodd" clip-rule="evenodd" d="M131.479 49.705c.177-.06.358-.186.553-.125.208.052.354.28.309.493-.044.181-.196.313-.359.39-.745.295-1.592-.033-2.323.315-.448.205-.732.657-.872 1.114-.087.373-.159.75-.223 1.128.194-.2.368-.432.624-.558.266-.131.548-.266.852-.26.318.004.65-.034.95.097.968.322 1.621 1.27 1.754 2.257.061.613.048 1.255-.209 1.826-.17.473-.529.851-.93 1.139-.711.476-1.654.513-2.436.196a2.308 2.308 0 0 1-1.067-.95c-.334-.563-.46-1.226-.472-1.873-.019-.748-.03-1.503.082-2.245.073-.692.258-1.398.688-1.957.455-.565 1.186-.824 1.891-.867.396-.031.812.04 1.188-.12Zm-1.599 3.302c-.805.183-1.357 1.014-1.335 1.82-.038.59.109 1.195.451 1.68.281.386.746.661 1.234.63.569.04 1.096-.34 1.346-.832.465-.897.363-2.07-.28-2.855-.342-.394-.908-.59-1.416-.443ZM153.256 52.206c.522-.057 1.076-.055 1.557.183.802.364 1.328 1.196 1.391 2.065.008.247.077.581-.169.741-.262.135-.567.085-.85.099-1.025.069-2.053.017-3.08.037.008.467.193.924.496 1.277.306.336.759.532 1.212.53.389.011.77-.104 1.121-.26.26-.116.508-.35.814-.274.27.035.398.382.25.598-.155.233-.432.338-.682.436-.842.275-1.8.387-2.632.016-.924-.4-1.507-1.397-1.509-2.39-.037-.647.053-1.317.382-1.884.372-.601.992-1.064 1.699-1.174Zm-.228.908c-.53.254-.799.843-.905 1.392 1.042.015 2.086.022 3.128-.003-.023-.673-.474-1.336-1.138-1.513-.36-.137-.753-.04-1.085.124ZM106.419 52.766c-.003-.226.071-.542.347-.56.893-.052 1.79-.004 2.685-.025.227.013.518-.047.67.17.133.218.071.488.084.732.007 1.316-.019 2.634.013 3.95.256 0 .571-.07.767.14.154.155.119.39.125.587-.013.391.014.782-.011 1.172-.007.208-.17.438-.4.398-.226.04-.482-.137-.475-.377-.016-.375.013-.75-.014-1.125a433.012 433.012 0 0 0-4.31 0c-.01.353.007.706-.002 1.06-.01.152-.046.346-.202.416-.243.07-.594.048-.661-.25-.052-.408-.006-.82-.024-1.23.013-.226-.049-.51.148-.677.2-.143.457-.19.645-.355.356-.305.517-.772.574-1.225.093-.931.027-1.868.041-2.801Zm.913.2c-.061.986.022 1.984-.148 2.962a1.934 1.934 0 0 1-.589 1.08c.91.009 1.82.006 2.73.002-.001-1.349.011-2.697-.006-4.045a51.213 51.213 0 0 0-1.987 0ZM119.205 52.406c.488-.28 1.064-.214 1.603-.222.369.01.742-.028 1.109.028.242.063.313.336.295.557-.012 1.477-.013 2.954.001 4.432.013.209-.02.45-.231.552-.236.188-.614-.017-.626-.306-.035-.547.016-1.097-.023-1.645-.464-.011-.93-.027-1.393.009-.281.01-.497.236-.593.484-.183.442-.302.937-.665 1.276-.171.16-.432.34-.669.204-.226-.099-.324-.418-.189-.624.15-.162.36-.28.434-.502.194-.478.362-1.025.845-1.293-.267-.186-.567-.36-.716-.662-.462-.808-.014-1.925.818-2.288Zm-.042 1.215c-.107.308-.097.68.1.951.2.297.57.433.917.442.388.002.777.01 1.165-.013.001-.677.007-1.354-.004-2.03-.36-.073-.731-.052-1.096-.04-.446.027-.905.26-1.082.69ZM134.438 52.237c.19-.06.448-.072.585.103.071.13.079.283.086.427.022.73.007 1.459-.009 2.187-.034.48-.079.961-.073 1.443.221-.25.383-.543.567-.82.375-.602.784-1.182 1.168-1.779.342-.466.641-.965 1.01-1.41a.522.522 0 0 1 .552-.17c.169.099.238.298.226.487-.004 1.56.005 3.122-.005 4.683.024.287-.294.515-.561.424a.53.53 0 0 1-.307-.435c-.059-.495.024-.992.015-1.488-.004-.713.051-1.424.076-2.136a1.682 1.682 0 0 0-.177.208 89.117 89.117 0 0 1-2.385 3.477c-.13.184-.307.375-.546.39-.219-.023-.449-.192-.436-.433-.041-1.52.006-3.042-.009-4.563.005-.21-.012-.501.223-.595ZM140.342 52.462c.288-.139.612-.2.926-.253.497.015 1.022-.092 1.49.121.56.204.984.776.955 1.381 0 .261-.132.504-.299.697-.178.209-.449.29-.676.43.243.115.514.185.721.364.229.197.445.441.501.748.094.567-.128 1.19-.601 1.529-.454.338-1.037.415-1.588.438-.592-.033-1.198-.13-1.722-.422-.329-.153-.251-.732.11-.794.31-.05.565.175.852.248.571.155 1.242.218 1.762-.12.415-.261.442-.944.037-1.226-.453-.357-1.057-.314-1.598-.308-.202.002-.456-.016-.556-.223-.15-.246.086-.591.365-.558.508.015 1.043-.003 1.501-.245.383-.203.417-.816.064-1.063a1.355 1.355 0 0 0-1.109-.204c-.347.046-.658.274-1.014.24-.368-.041-.439-.62-.121-.78ZM145.698 52.324c.171-.19.507-.158.654.048.099.129.094.301.103.456.004.561-.006 1.123.002 1.685.848.005 1.697.01 2.545-.002.004-.56-.002-1.12-.001-1.68.006-.183 0-.408.169-.524a.448.448 0 0 1 .63.046c.122.127.088.317.099.478-.01 1.518.007 3.037-.008 4.556.017.314-.369.56-.64.392-.184-.099-.252-.316-.248-.513-.005-.644.003-1.289.001-1.933-.849-.008-1.698-.006-2.547-.002-.006.582-.002 1.165 0 1.747-.003.18-.003.371-.086.537-.12.22-.451.295-.637.116a.457.457 0 0 1-.169-.403c.012-1.457.01-2.914.003-4.371.009-.213-.055-.476.13-.633ZM159.391 52.234c.652-.096 1.341-.03 1.943.252.23.097.303.408.179.615-.089.149-.278.262-.451.198-.353-.119-.684-.325-1.065-.342a1.846 1.846 0 0 0-1.369.627c-.412.54-.508 1.267-.387 1.923.056.412.223.82.531 1.107.311.304.751.41 1.165.49.392.065.754-.145 1.09-.319.193-.11.464-.094.62.074.168.189.098.511-.111.64-.636.359-1.391.406-2.102.316-.648-.127-1.274-.468-1.654-1.019-.362-.562-.47-1.246-.441-1.904-.016-.689.185-1.415.685-1.91.36-.39.855-.629 1.367-.748ZM163.383 52.46c.683-.279 1.436-.31 2.164-.254.687.107 1.36.576 1.548 1.27.105.548.021 1.11.033 1.663.017.666-.072 1.346.095 1.998.054.238.081.566-.19.681-.185.02-.422.052-.542-.124-.129-.209-.141-.464-.208-.695-.23.167-.4.404-.643.552-.437.28-.98.409-1.492.302-.574-.087-1.171-.426-1.378-.995-.208-.618-.042-1.355.447-1.794.523-.42 1.182-.62 1.834-.73.416-.033.823-.146 1.243-.147-.011-.267-.036-.553-.207-.77-.25-.31-.654-.461-1.041-.494-.479.028-.946.171-1.386.357-.267.14-.6-.1-.596-.39-.022-.205.142-.363.319-.43Zm1.626 2.609c-.431.103-.884.251-1.184.598-.291.317-.324.886.001 1.192.266.222.638.318.977.254a2.477 2.477 0 0 0 1.181-.66c.11-.125.246-.258.248-.436.016-.372.008-.744-.003-1.115-.414-.005-.817.085-1.22.167ZM112.88 52.566c.105-.163.312-.242.501-.24a67.896 67.896 0 0 1 2.745-.008c.234-.007.375.24.354.45 0 1.52-.004 3.04.002 4.56 0 .142-.011.305-.135.398-.239.24-.703.062-.72-.276-.021-1.45.01-2.902-.015-4.352-.617-.021-1.234-.01-1.851-.007-.027 1.054.077 2.122-.136 3.164-.162.585-.491 1.188-1.076 1.437-.198.072-.434.194-.63.051-.207-.107-.218-.387-.145-.582.144-.233.462-.239.652-.42.296-.28.394-.706.407-1.1.034-.874.021-1.75.006-2.623.003-.15-.006-.307.041-.452ZM96.525 54.903h-4.488v2.37a.546.546 0 0 1-.136.389.497.497 0 0 1-.375.144.485.485 0 0 1-.364-.144.548.548 0 0 1-.136-.389V52.99c0-.892.221-1.75.866-2.395s1.503-.866 2.395-.866c.893 0 1.745.227 2.39.87.644.645.87 1.498.87 2.39v4.284a.548.548 0 0 1-.135.389.499.499 0 0 1-.376.144.5.5 0 0 1-.368-.143.53.53 0 0 1-.143-.39v-2.37Zm0-.869v-1.077c0-.625-.13-1.27-.576-1.737-.438-.458-1.047-.6-1.662-.6s-1.233.139-1.674.595c-.448.465-.576 1.117-.576 1.742v1.077h4.488Zm3.517 3.772a.485.485 0 0 1-.365-.144.546.546 0 0 1-.136-.389v-7.011c0-.143.035-.283.136-.389a.484.484 0 0 1 .365-.144.49.49 0 0 1 .377.151c.096.106.134.24.134.382v7.011a.553.553 0 0 1-.134.382.492.492 0 0 1-.377.151ZM51.605 7.653c2.742 1.715 4.512 4.485 5.3 7.378.533 1.802.587 3.682 1.02 5.5.26 1.138.798 2.22 1.528 3.173.917 1.175 2.235 2.017 3.58 2.747.814.48 1.736 1.085 1.862 2.027.125 1.028-.701 1.865-1.475 2.513-.399.34-.958.76-.758 1.32.322.682 1.15 1.007 1.563 1.633.326.552.25 1.3-.25 1.75-.3.356-.87.669-.75 1.183.202.627 1.053.93 1.087 1.623.055.93-.862 1.654-.78 2.593.095.896.664 1.671.96 2.516.478 1.124.296 2.558-.776 3.358-1.353 1.002-3.205 1.067-4.872 1.154-3.025.042-6.204.329-8.83 1.806-2.093 1.167-3.545 3.203-3.867 5.409-.355 2.11.295 4.343 1.797 5.992.254.273.518.537.745.83-3.595-1.336-6.646-3.947-8.171-7.201-1.4-2.953-1.446-6.293-.733-9.403 1.115-4.752 3.858-8.99 6.327-13.247 1.077-1.95 2.304-3.913 2.669-6.1-1.463 3.341-3.676 6.35-5.975 9.26-2.883 3.754-5.407 7.885-6.257 12.444a16.385 16.385 0 0 0 1.243 10.144c1.805 3.554 5.26 6.245 9.09 7.945 4.2 1.865 8.99 2.39 13.615 2.048 7.309-.687 7.462-5.26 6.864-8.421 1.81.802 2.653 2.85 2.368 4.755-.274 1.933-1.577 3.651-3.275 4.807-2.178 1.506-4.895 2.223-7.59 2.476a34.957 34.957 0 0 1-14.37-1.542c-3.283-1.058-6.491-2.563-8.878-4.909a18.327 18.327 0 0 1-5.554-13.926c.227-4.418 2.016-8.661 4.496-12.432 1.972-2.992 4.342-5.75 6.79-8.432 2.373-2.663 4.892-5.24 6.905-8.15.21-.297.412-.599.603-.905 2.668-4.27 3.362-7.094-1.865-10.306-1.17-.72 4.804-2.144 4.614-3.41Z" fill="#A8B3B4"/><path fill-rule="evenodd" clip-rule="evenodd" d="M28.838 40.145c-.396.615-.777 1.24-1.137 1.878-2.46 4.389-3.995 9.35-3.437 14.302.48 4.654 2.576 9.221 6.136 12.638 2.506 2.438 5.808 4.067 9.194 5.286 3.414 1.222 7.03 2.007 10.7 2.216-1.417.138-2.847.018-4.26-.118-4.267-.418-8.43-1.578-12.264-3.316-3.267-1.515-6.413-3.398-8.748-6.002-3.586-4.021-5.252-9.307-4.954-14.44.227-4.48 2.11-8.774 4.729-12.536l.157-.223a9.18 9.18 0 0 0 3.884.315ZM23.706.71c10.629-1.133 21.83 1.832 29.78 8.391.847.828.978 2.178.284 3.119-.589.84-1.72 1.371-2.823 1.232-.732-.084-1.35-.486-1.885-.918-5.009-3.896-11.427-6.232-17.998-6.701-9.424-.758-19.03 2.19-26.24 7.69-.864.71-2.2.908-3.233.387C.41 13.365-.3 12.037.124 10.87.4 9.837 1.47 9.269 2.32 8.641 8.468 4.298 15.945 1.474 23.706.712Z" fill="#A8B3B4"/><path fill-rule="evenodd" clip-rule="evenodd" d="M24.95 9.925c7.55-.771 15.455 1.193 21.32 5.614.692.506 1.11 1.312 1.042 2.123-.061 1.21-1.156 2.33-2.504 2.452-.943.18-1.831-.273-2.526-.805-3.255-2.353-7.271-3.789-11.401-4.205-6.7-.698-13.592 1.25-18.85 5.033-.871.724-2.226.916-3.265.376-1.304-.576-1.908-2.109-1.348-3.312.377-.78 1.197-1.257 1.921-1.747a34.095 34.095 0 0 1 15.61-5.53Z" fill="#A8B3B4"/><path fill-rule="evenodd" clip-rule="evenodd" d="M26.774 19.245c4.282-.285 8.708.703 12.22 2.973.964.611 1.495 1.787 1.126 2.823-.346 1.2-1.722 2.084-3.093 1.924-1.114-.099-1.907-.903-2.9-1.286-4.376-1.997-9.801-1.454-13.902.847-.891.489-1.764 1.22-2.891 1.086-1.775-.04-3.188-1.828-2.605-3.358.329-1.066 1.46-1.639 2.425-2.184a22.858 22.858 0 0 1 9.62-2.825ZM26.581 28.475c1.413-.271 2.95.044 4.082.86 1.39.986 2.14 2.68 1.799 4.26-.194 1.21-1.012 2.304-2.13 2.977-1.532.953-3.683.984-5.262.106-1.832-.943-2.766-3.043-2.263-4.882.438-1.632 1.95-2.987 3.774-3.321Z" fill="#A8B3B4"/></svg></svg>